<?xml version="1.0" encoding="utf-8"?>
<!-- Generator: Adobe Illustrator 26.3.1, SVG Export Plug-In . SVG Version: 6.00 Build 0)  -->
<svg version="1.1" id="Camada_1" xmlns="http://www.w3.org/2000/svg" xmlns:xlink="http://www.w3.org/1999/xlink" x="0px" y="0px"
	 viewBox="0 0 135 666" style="enable-background:new 0 0 135 666;" xml:space="preserve">
<style type="text/css">
	.st0{fill:#36D6AD;}
	.st1{fill:none;stroke:#36D6AD;stroke-width:2;}
</style>
<g>
	<path class="st0" d="M100.4,472.2C131.9,519.1,116,601.5-0.4,635.4l0-610.4C34,58.6,99.9,150,88.4,246.6S50.3,397.8,100.4,472.2z"
		/>
	<path class="st1" d="M-0.4,665C138.4,627.9,155.9,529.8,114,457.8c-47-80.6-10.8-116.8,0-211.2S55.9,33-0.4,1 M-0.4,635.4
		C116,601.5,131.9,519.1,100.4,472.2c-50-74.4-23.5-129-12-225.6S34,58.6-0.4,25L-0.4,635.4z"/>
</g>
</svg>
