<?xml version="1.0" encoding="utf-8"?>
<!-- Generator: Adobe Illustrator 26.3.1, SVG Export Plug-In . SVG Version: 6.00 Build 0)  -->
<svg version="1.1" id="Camada_1" xmlns="http://www.w3.org/2000/svg" xmlns:xlink="http://www.w3.org/1999/xlink" x="0px" y="0px"
	 viewBox="0 0 24 20" style="enable-background:new 0 0 24 20;" xml:space="preserve">
<style type="text/css">
	.st0{fill:#FC7071;}
</style>
<path class="st0" d="M2.5,19c-0.5,0-0.9-0.2-1.2-0.5c-0.3-0.4-0.5-0.8-0.5-1.2V1.9C0.8,1.4,1,1,1.3,0.7c0.3-0.4,0.8-0.5,1.2-0.5
	h19.7c0.5,0,0.9,0.2,1.2,0.5c0.3,0.4,0.5,0.8,0.5,1.2v15.3c0,0.5-0.2,0.9-0.5,1.2c-0.3,0.4-0.8,0.5-1.2,0.5H2.5z M12.4,10.1L2.5,3.5
	v13.7h19.7V3.5L12.4,10.1z M12.4,8.3l9.7-6.4H2.7L12.4,8.3z M2.5,3.5V1.9V3.5v13.7V3.5z"/>
</svg>
