<?xml version="1.0" encoding="utf-8"?>
<!-- Generator: Adobe Illustrator 26.3.1, SVG Export Plug-In . SVG Version: 6.00 Build 0)  -->
<svg version="1.1" id="Camada_1" xmlns="http://www.w3.org/2000/svg" xmlns:xlink="http://www.w3.org/1999/xlink" x="0px" y="0px"
	 viewBox="0 0 187 46" style="enable-background:new 0 0 187 46;" xml:space="preserve">
<style type="text/css">
	.st0{fill:#FFFFFF;}
</style>
<path class="st0" d="M59,0h4v34.5c0,0.5-0.1,1-0.3,1.5c-0.2,0.5-0.5,0.9-0.8,1.2c-0.3,0.4-0.7,0.7-1.2,0.9c-0.4,0.2-0.9,0.3-1.4,0.3
	h-3.6v-2.2c-2.2,1.4-4.7,2.1-7.3,2.1c-1.9,0-3.8-0.4-5.6-1.1c-1.8-0.8-3.4-1.9-4.7-3.4c-1.4-1.4-2.4-3.1-3.2-5
	C34.1,27,33.8,25,33.8,23c0-2,0.4-4,1.1-5.8c0.7-1.9,1.8-3.5,3.2-5c1.4-1.4,3-2.5,4.7-3.3c1.8-0.8,3.7-1.2,5.6-1.2
	c2.6,0,5.1,0.7,7.3,2.1V3.4c0-0.9,0.3-1.8,1-2.4C57.3,0.4,58.1,0,59,0z M55.7,23.2v-0.5c0-1.3-0.4-2.6-1-3.7c-0.6-1.1-1.6-2-2.6-2.7
	c-1.1-0.7-2.4-1-3.7-1c-1.3,0-2.5,0.4-3.7,1c-1.1,0.7-2,1.6-2.7,2.8c-0.8,1.5-1.1,3.2-0.9,4.8c0.2,1.7,0.9,3.2,2.1,4.4
	c1.4,1.4,3.2,2.3,5.1,2.3c1.9,0,3.8-0.8,5.2-2.2c0.7-0.7,1.2-1.5,1.6-2.4C55.5,25.2,55.7,24.2,55.7,23.2z"/>
<path class="st0" d="M70.4,12.2c2.7-2.9,6.5-4.5,10.3-4.5c3.9,0,7.6,1.6,10.4,4.5c1.4,1.4,2.5,3.1,3.2,4.9C95,19,95.4,21,95.4,23
	c0,2-0.3,4-1.1,5.9c-0.7,1.9-1.8,3.5-3.2,4.9c-1.4,1.4-3,2.5-4.7,3.3c-1.8,0.8-3.7,1.2-5.6,1.2s-3.8-0.4-5.6-1.2
	c-1.8-0.8-3.4-1.9-4.7-3.3c-1.4-1.4-2.5-3.1-3.2-4.9C66.4,27,66.1,25,66.1,23c0-2,0.3-4,1.1-5.8C67.9,15.3,69,13.6,70.4,12.2z
	 M75.6,28.4c0.7,0.7,1.5,1.3,2.4,1.7c0.9,0.4,1.8,0.6,2.8,0.6c1,0,1.9-0.2,2.8-0.6c0.9-0.4,1.7-1,2.4-1.7c0.7-0.7,1.2-1.5,1.6-2.5
	C87.9,25,88,24,88,23c0-2-0.8-3.9-2.2-5.3c-1.4-1.4-3.2-2.2-5.1-2.2c-1.9,0-3.7,0.8-5.1,2.2c-1.4,1.4-2.2,3.3-2.2,5.3
	c0,1,0.2,2,0.5,3C74.3,26.9,74.9,27.7,75.6,28.4L75.6,28.4z"/>
<path class="st0" d="M127.7,19.9c0.5,2.3,0.4,4.7-0.2,7c-0.5,2.2-1.5,4.2-2.9,5.9c-1.4,1.7-3.1,3.1-5,4c-2.1,1.1-4.5,1.6-6.9,1.5
	c-2.4-0.1-4.7-0.8-6.7-2.1v6c0,0.5-0.1,1-0.3,1.5c-0.2,0.5-0.5,0.9-0.8,1.2c-0.3,0.4-0.7,0.7-1.2,0.9c-0.5,0.2-0.9,0.3-1.4,0.3h-3.6
	V7.7h7.3v2.1c1.8-1.1,3.7-1.8,5.8-2.1c2-0.2,4.1,0,6.1,0.7c2.5,0.8,4.7,2.3,6.4,4.3C126,14.8,127.2,17.2,127.7,19.9z M108.1,28.4
	c1,1.1,2.3,1.8,3.8,2.1c1.4,0.3,2.9,0.1,4.2-0.4c1.3-0.6,2.5-1.6,3.3-2.8s1.2-2.7,1.2-4.3c0-2-0.8-4-2.1-5.4
	c-1.4-1.4-3.2-2.2-5.2-2.2s-3.8,0.8-5.2,2.2c-1.4,1.4-2.1,3.4-2.1,5.4c0,1,0.2,2,0.5,3C106.9,26.9,107.5,27.7,108.1,28.4z"/>
<path class="st0" d="M179.4,27h7.2c0,2-0.5,4-1.4,5.8c-0.9,1.7-2.3,3.2-4,4.1c-1.7,1-3.6,1.5-5.5,1.5c-1.2,0-2.5-0.2-3.6-0.6
	c-2.1-0.8-4-2.2-5.3-4.2c-1.3-1.9-2-4.2-2-6.6V0.1h3.6c0.6,0,1.3,0.2,1.8,0.5c0.6,0.3,1,0.8,1.3,1.4c0.3,0.6,0.5,1.3,0.5,1.9v3.9
	h14.6v7.5h-14.6v12.3c0.2,0.9,0.7,1.8,1.4,2.3c0.7,0.6,1.7,0.8,2.6,0.7c0.9-0.1,1.8-0.5,2.4-1.3C179.1,28.9,179.4,28,179.4,27z"/>
<path class="st0" d="M22,7.7v2.1c-2.2-1.4-4.8-2.1-7.3-2.1c-1.9,0-3.8,0.3-5.6,1.1c-1.8,0.8-3.4,1.9-4.7,3.3
	c-1.4,1.4-2.5,3.1-3.2,4.9C0.3,19,0,21,0,23c0,2,0.3,4,1.1,5.9c0.7,1.9,1.8,3.5,3.2,4.9c1.3,1.4,2.9,2.6,4.7,3.4
	c1.8,0.8,3.7,1.2,5.6,1.1c2.7,0,5.3-0.8,7.6-2.3c0.3,0.7,0.8,1.2,1.3,1.6c0.6,0.4,1.3,0.7,2,0.7h3.7V7.7H22z M17.2,18.4
	c0.2-1.3,1.2-2.1,2.2-1.9c1,0.3,1.7,1.5,1.6,2.8c-0.2,1.3-1.2,2.1-2.2,1.9C17.8,21,17.1,19.7,17.2,18.4z M13,14.1
	c0.9-0.7,2.2-0.2,2.8,1c0.6,1.2,0.4,2.7-0.5,3.4c-0.9,0.7-2.2,0.2-2.8-1C11.9,16.2,12.1,14.8,13,14.1z M8.3,16.2
	c0.9-0.7,2.2-0.2,2.8,1c0.6,1.2,0.4,2.7-0.5,3.4c-0.9,0.7-2.2,0.2-2.8-1C7.1,18.4,7.3,16.9,8.3,16.2L8.3,16.2z M9.5,25.4
	c-0.5,1-1.8,1.1-2.8,0.4c-1-0.7-1.4-2.1-0.9-3.1c0.5-0.9,1.8-1.1,2.8-0.4C9.7,23.1,10.1,24.5,9.5,25.4L9.5,25.4z M21,27.9
	c-1.3,1-3.2-0.2-4.7,0.5c-1.6,0.6-2.2,2.9-3.8,3.1c-1.6,0.2-2.8-1.6-1.4-5c1-2.2,0.7-4.2,2.5-5c1.8-0.7,2.9,0.9,5.1,1.8
	C21.9,24.7,22.3,26.9,21,27.9L21,27.9z"/>
<path class="st0" d="M152.4,27.2c-0.7,1.3-1.9,2.4-3.2,3c-1.3,0.6-2.8,0.8-4.3,0.6c-1.4-0.3-2.7-0.9-3.8-2l19.2-9l-0.2-1
	c0-0.2-0.1-0.4-0.1-0.6c-0.1-0.4-0.3-0.9-0.4-1.3c-0.6-1.4-1.4-2.7-2.4-3.8c-2-2.5-4.7-4.2-7.8-4.8c-3.1-0.7-6.3-0.4-9.1,1
	c-1.9,0.9-3.6,2.2-5,3.8c-1.4,1.6-2.4,3.5-3,5.6c-0.6,2.1-0.8,4.2-0.5,6.3c0.3,2.5,1.2,4.9,2.6,7c1.3,2,3,3.6,5.1,4.7
	c2,1.1,4.2,1.7,6.5,1.8c2.3,0.1,4.5-0.5,6.6-1.5c2.1-1,3.9-2.6,5.2-4.4c1.2-1.6,2-3.4,2.5-5.3H152.4z M140.4,18.3
	c0.7-1,1.7-1.7,2.7-2.2c1.1-0.5,2.2-0.7,3.4-0.7c1.2,0.1,2.3,0.4,3.3,1L139,21.6C139.2,20.4,139.7,19.3,140.4,18.3z"/>
</svg>
