<?xml version="1.0" encoding="utf-8"?>
<!-- Generator: Adobe Illustrator 26.3.1, SVG Export Plug-In . SVG Version: 6.00 Build 0)  -->
<svg version="1.1" id="Camada_1" xmlns="http://www.w3.org/2000/svg" xmlns:xlink="http://www.w3.org/1999/xlink" x="0px" y="0px"
	 viewBox="0 0 18 16" style="enable-background:new 0 0 18 16;" xml:space="preserve">
<style type="text/css">
	.st0{fill:#999999;}
</style>
<g>
	<path class="st0" d="M9,3.9c-1.9,0-3.4,1.5-3.4,3.4c0,1.9,1.5,3.4,3.4,3.4s3.4-1.5,3.4-3.4C12.4,5.4,10.9,3.9,9,3.9z"/>
	<path class="st0" d="M14.5,2.9c-1.6-1.1-3.4-1.6-5.3-1.6c-0.7,0-1.4,0.1-2.2,0.2C6.2,1.7,5.6,1.9,5.1,2.1c-0.5,0.2-1.5,0.7-1.8,1
		C2.6,3.6,1.9,4.2,1.4,5C0.8,5.7,0.4,6.4,0,7.3c0.8,1.8,1.9,3.3,3.5,4.4c1.6,1.1,3.4,1.6,5.3,1.6c0.7,0,1.4-0.1,2.2-0.2
		c0.7-0.2,1.4-0.3,1.8-0.6c0.5-0.2,1.4-0.7,1.8-1c0.7-0.5,1.4-1.2,1.9-1.9c0.6-0.7,1-1.5,1.4-2.3C17.2,5.5,16.1,4,14.5,2.9z
		 M15.6,9.1c-0.5,0.6-1.1,1.1-1.7,1.6c-0.3,0.2-1.3,0.6-1.9,0.9c-0.3,0.1-0.8,0.3-1.4,0.4C10,12,9.4,12.1,8.8,12.1
		c-1.6,0-3.1-0.4-4.4-1.3C3,9.9,2,8.8,1.3,7.3c0.2-0.6,0.6-1.2,1.1-1.8c0.5-0.6,1.1-1.1,1.7-1.6C4.9,3.4,5.5,3.3,6,3
		c0.3-0.1,0.8-0.3,1.4-0.4C8,2.6,8.6,2.5,9.2,2.5c1.6,0,3.1,0.4,4.4,1.3c1.4,0.9,2.4,2,3.1,3.5C16.5,7.9,16.1,8.5,15.6,9.1z"/>
</g>
</svg>
